<svg version="1.0" xmlns="http://www.w3.org/2000/svg" width="800.000000" height="800.000000" viewBox="0 0 800.000000 800.000000" preserveAspectRatio="xMidYMid meet">
  <g transform="translate(0.000000,800.000000) scale(0.115000,-0.115000)" fill="#000000" stroke="none">
    <path d="M4820 5509 c-358 -25 -688 -166 -910 -389 -132 -131 -240 -308 -309 -503 -37 -107 -38 -121 -6 -152 29 -30 83 -33 112 -7 11 9 34 58 53 107 68 185 151 319 274 439 297 292 789 413 1216 299 370 -99 685 -352 858 -690 233 -456 192 -996 -106 -1408 l-58 -80 120 -148 c170 -209 172 -212 138 -253 -33 -40 -51 -42 -324 -45 l-267 -3 -23 29 c-13 16 -32 40 -44 54 l-20 24 -69 -28 c-293 -117 -576 -136 -864 -59 -51 14 -118 36 -148 50 -74 32 -116 32 -142 -2 -28 -36 -27 -85 2 -111 46 -43 167 -85 352 -124 167 -35 404 -33 575 3 69 15 152 36 184 48 l60 20 29 -35 29 -36 332 3 c317 3 333 4 371 25 96 51 149 137 147 236 -2 73 -12 91 -123 229 -50 62 -93 118 -96 125 -2 6 13 37 35 70 137 201 231 527 232 799 0 81 -22 266 -41 339 -25 96 -75 237 -114 320 -264 553 -850 897 -1455 854z"/>
    <path d="M2898 5500 c-266 -42 -520 -147 -723 -299 -87 -66 -241 -224 -308 -318 -133 -187 -239 -443 -266 -643 -28 -216 -33 -287 -22 -308 6 -11 11 -42 11 -69 0 -146 70 -390 164 -569 147 -282 378 -508 661 -648 143 -70 225 -99 376 -131 235 -50 451 -45 703 16 379 93 707 334 908 669 28 47 52 86 53 88 1 1 42 -18 91 -43 49 -25 125 -55 169 -67 162 -42 443 -23 512 36 57 50 13 154 -61 143 -17 -2 -60 -12 -96 -22 -151 -41 -403 8 -518 102 l-23 18 26 90 c44 152 64 296 67 486 l3 174 -735 0 -735 0 0 -319 0 -319 222 -1 c122 -1 225 -5 230 -9 11 -12 -103 -118 -168 -155 -136 -77 -343 -105 -494 -67 -302 76 -519 352 -519 660 0 110 21 193 74 300 102 209 295 345 528 374 78 10 120 6 282 -26 41 -8 80 30 80 78 0 62 -28 83 -136 103 -293 54 -565 -37 -770 -257 -215 -231 -281 -574 -168 -876 94 -249 316 -449 572 -513 132 -34 334 -31 457 6 255 77 430 243 515 491 l19 55 -277 2 -277 3 -3 153 -3 152 572 0 572 0 -6 -103 c-22 -350 -155 -655 -392 -893 -193 -194 -417 -312 -710 -376 -83 -18 -409 -17 -500 1 -105 20 -261 74 -356 121 -269 135 -492 359 -618 623 -84 176 -120 323 -128 519 -14 341 78 630 282 893 360 463 1009 644 1524 425 79 -34 107 -34 141 0 26 26 26 80 0 112 -24 31 -179 88 -320 119 -108 23 -386 34 -482 19z"/>
    <path d="M4739 4820 c-205 -43 -460 -211 -459 -303 1 -36 14 -58 48 -76 34 -18 74 -5 113 36 46 48 168 127 235 152 75 29 207 49 279 44 232 -16 447 -156 554 -362 57 -111 75 -185 74 -316 0 -96 -4 -121 -31 -200 l-31 -90 64 -64 64 -65 26 60 c57 129 70 196 70 369 0 154 -2 163 -33 255 -143 415 -550 650 -973 560z"/>
  </g>
</svg>