<svg width="800" height="800" xmlns="http://www.w3.org/2000/svg" version="1.0" preserveAspectRatio="xMidYMid meet" stroke="null">
 <metadata stroke="null"/>

 <g stroke="null">
  <title stroke="null">Layer 1</title>
  <g fill="#000000" id="svg_1" stroke="null">
   <path d="m4820,5509c-358,-25 -688,-166 -910,-389c-132,-131 -240,-308 -309,-503c-37,-107 -38,-121 -6,-152c29,-30 83,-33 112,-7c11,9 34,58 53,107c68,185 151,319 274,439c297,292 789,413 1216,299c370,-99 685,-352 858,-690c233,-456 192,-996 -106,-1408l-58,-80l120,-148c170,-209 172,-212 138,-253c-33,-40 -51,-42 -324,-45l-267,-3l-23,29c-13,16 -32,40 -44,54l-20,24l-69,-28c-293,-117 -576,-136 -864,-59c-51,14 -118,36 -148,50c-74,32 -116,32 -142,-2c-28,-36 -27,-85 2,-111c46,-43 167,-85 352,-124c167,-35 404,-33 575,3c69,15 152,36 184,48l60,20l29,-35l29,-36l332,3c317,3 333,4 371,25c96,51 149,137 147,236c-2,73 -12,91 -123,229c-50,62 -93,118 -96,125c-2,6 13,37 35,70c137,201 231,527 232,799c0,81 -22,266 -41,339c-25,96 -75,237 -114,320c-264,553 -850,897 -1455,854z" id="svg_2" stroke="null"/>
   <path d="m2898,5500c-266,-42 -520,-147 -723,-299c-87,-66 -241,-224 -308,-318c-133,-187 -239,-443 -266,-643c-28,-216 -33,-287 -22,-308c6,-11 11,-42 11,-69c0,-146 70,-390 164,-569c147,-282 378,-508 661,-648c143,-70 225,-99 376,-131c235,-50 451,-45 703,16c379,93 707,334 908,669c28,47 52,86 53,88c1,1 42,-18 91,-43c49,-25 125,-55 169,-67c162,-42 443,-23 512,36c57,50 13,154 -61,143c-17,-2 -60,-12 -96,-22c-151,-41 -403,8 -518,102l-23,18l26,90c44,152 64,296 67,486l3,174l-735,0l-735,0l0,-319l0,-319l222,-1c122,-1 225,-5 230,-9c11,-12 -103,-118 -168,-155c-136,-77 -343,-105 -494,-67c-302,76 -519,352 -519,660c0,110 21,193 74,300c102,209 295,345 528,374c78,10 120,6 282,-26c41,-8 80,30 80,78c0,62 -28,83 -136,103c-293,54 -565,-37 -770,-257c-215,-231 -281,-574 -168,-876c94,-249 316,-449 572,-513c132,-34 334,-31 457,6c255,77 430,243 515,491l19,55l-277,2l-277,3l-3,153l-3,152l572,0l572,0l-6,-103c-22,-350 -155,-655 -392,-893c-193,-194 -417,-312 -710,-376c-83,-18 -409,-17 -500,1c-105,20 -261,74 -356,121c-269,135 -492,359 -618,623c-84,176 -120,323 -128,519c-14,341 78,630 282,893c360,463 1009,644 1524,425c79,-34 107,-34 141,0c26,26 26,80 0,112c-24,31 -179,88 -320,119c-108,23 -386,34 -482,19z" id="svg_3" stroke="null"/>
   <path d="m4739,4820c-205,-43 -460,-211 -459,-303c1,-36 14,-58 48,-76c34,-18 74,-5 113,36c46,48 168,127 235,152c75,29 207,49 279,44c232,-16 447,-156 554,-362c57,-111 75,-185 74,-316c0,-96 -4,-121 -31,-200l-31,-90l64,-64l64,-65l26,60c57,129 70,196 70,369c0,154 -2,163 -33,255c-143,415 -550,650 -973,560z" id="svg_4" stroke="null"/>
  </g>
  <g stroke="null" id="svg_5">
   <metadata stroke="null"/>
   <g stroke="null" id="svg_6" transform="translate(0 800) scale(0.1 -0.1)" fill="#000000">
    <path stroke="null" id="svg_7" d="m5291.96089,6253.5642c-573.25341,-40.66823 -1101.67135,-270.03704 -1457.15252,-632.79764c-211.36718,-213.10152 -384.30396,-501.03258 -494.79135,-818.24476c-59.24686,-174.06002 -60.84813,-196.83423 -9.6076,-247.26283c46.43673,-48.80187 132.90512,-53.68206 179.34185,-11.3871c17.61393,14.64056 54.44306,94.35029 84.86712,174.06002c108.88612,300.94489 241.79124,518.9266 438.74702,714.1341c475.57615,475.00491 1263.39927,671.83914 1947.14007,486.39202c592.46861,-161.04619 1096.86755,-572.60866 1373.88666,-1122.44311c373.0951,-741.78849 307.44317,-1620.22223 -169.73425,-2290.43464l-92.87346,-130.13833l192.15198,-240.75591c272.21531,-339.98639 275.41784,-344.86658 220.97478,-411.56248c-52.84179,-65.06917 -81.66459,-68.32262 -518.81035,-73.20281l-427.53816,-4.88019l-36.82913,47.17515c-20.81646,26.02767 -51.24053,65.06917 -70.45573,87.84337l-32.02533,39.0415l-110.48739,-45.54842c-469.17109,-190.32731 -922.32951,-221.23516 -1383.49426,-95.97702c-81.66459,22.77421 -188.94945,58.56225 -236.98744,81.33646c-118.49372,52.05533 -185.74691,52.05533 -227.37984,-3.25346c-44.83546,-58.56225 -43.2342,-138.27198 3.20253,-180.56694c73.65826,-69.94935 267.41151,-138.27198 563.64581,-201.71441c267.41151,-56.93552 646.91167,-53.68206 920.72824,4.88019c110.48739,24.40094 243.39251,58.56225 294.63304,78.083l96.07599,32.53458l46.43673,-56.93552l46.43673,-58.56225l531.62048,4.88019c507.60148,4.88019 533.22175,6.50692 594.06987,40.66823c153.72158,82.96319 238.58871,222.86189 235.38618,383.90808c-3.20253,118.75123 -19.2152,148.03235 -196.95578,372.52098c-80.06333,100.85721 -148.91778,191.95404 -153.72158,203.34114c-3.20253,9.76037 20.81646,60.18898 56.04433,113.87104c219.37351,326.97256 369.89256,857.28626 371.49383,1299.75659c0,131.76506 -35.22786,432.70995 -65.65193,551.46118c-40.03166,156.166 -120.09499,385.53481 -182.54438,520.55333c-422.73436,899.58122 -1361.07653,1459.17605 -2329.84276,1389.22669z"/>
    <path stroke="null" id="svg_8" d="m2214.32667,6238.92363c-425.93689,-68.32262 -832.65858,-239.12919 -1157.71568,-486.39202c-139.31019,-107.36412 -385.90523,-364.38733 -493.19008,-517.29987c-212.96844,-304.19835 -382.70269,-720.64101 -425.93689,-1045.98684c-44.83546,-351.3735 -52.84179,-466.87127 -35.22786,-501.03258c9.6076,-17.89402 17.61393,-68.32262 17.61393,-112.24431c0,-237.50246 112.08866,-634.42437 262.60771,-925.60889c235.38618,-458.73762 605.27874,-826.37841 1058.43716,-1054.12049c228.98111,-113.87104 360.28496,-161.04619 602.07621,-213.10152c376.29763,-81.33646 722.17119,-73.20281 1125.69035,26.02767c606.88,151.28581 1132.09542,543.32754 1453.94999,1088.2818c44.83546,76.45627 83.26586,139.89871 84.86712,143.15217c1.60127,1.62673 67.25319,-29.28112 145.71525,-69.94935c78.46206,-40.66823 200.15831,-89.4701 270.61404,-108.99085c259.40517,-68.32262 709.36106,-37.41477 819.84845,58.56225c91.27219,81.33646 20.81646,250.51629 -97.67726,232.62227c-27.22153,-3.25346 -96.07599,-19.52075 -153.72158,-35.78804c-241.79124,-66.6959 -645.3104,13.01383 -829.45605,165.92637l-36.82913,29.28112l41.63293,146.40562c70.45573,247.26283 102.48106,481.51183 107.28486,790.59037l4.8038,283.05087l-1176.93088,0l-1176.93088,0l0,-518.9266l0,-518.9266l355.48116,-1.62673c195.35451,-1.62673 360.28496,-8.13365 368.2913,-14.64056c17.61393,-19.52075 -164.93045,-191.95404 -269.01277,-252.14302c-217.77224,-125.25814 -549.23441,-170.80656 -791.02565,-108.99085c-483.58248,123.63142 -831.05732,572.60866 -831.05732,1073.64124c0,178.94021 33.6266,313.95873 118.49372,488.01875c163.32918,339.98639 472.37362,561.22156 845.46871,608.3967c124.89879,16.26729 192.15198,9.76037 451.55715,-42.29496c65.65193,-13.01383 128.10132,48.80187 128.10132,126.88487c0,100.85721 -44.83546,135.01852 -217.77224,167.5531c-469.17109,87.84337 -904.71557,-60.18898 -1232.97521,-418.06939c-344.2723,-375.77443 -449.95589,-933.74253 -269.01277,-1425.01474c150.51905,-405.05556 506.00022,-730.40139 915.92444,-834.51205c211.36718,-55.30879 534.82301,-50.4286 731.77879,9.76037c408.32296,125.25814 688.5446,395.29518 824.65225,798.72401l30.42406,89.4701l-443.55082,3.25346l-443.55082,4.88019l-4.8038,248.88956l-4.8038,247.26283l915.92444,0l915.92444,0l-9.6076,-167.5531c-35.22786,-569.3552 -248.19631,-1065.50759 -627.69647,-1452.66913c-309.04444,-315.58546 -667.72813,-507.53949 -1136.89922,-611.65016c-132.90512,-29.28112 -654.918,-27.6544 -800.63325,1.62673c-168.13298,32.53458 -417.93056,120.37796 -570.05088,196.83423c-430.74069,219.60844 -787.82312,583.99576 -989.5827,1013.45226c-134.50639,286.30433 -192.15198,525.43352 -204.96211,844.27243c-22.41773,554.71464 124.89879,1024.83936 451.55715,1452.66913c576.45594,753.1756 1615.6779,1047.61357 2440.33015,691.35989c126.50005,-55.30879 171.33552,-55.30879 225.77858,0c41.63293,42.29496 41.63293,130.13833 0,182.19366c-38.4304,50.4286 -286.6267,143.15217 -512.40528,193.58077c-172.93678,37.41477 -618.08887,55.30879 -771.81045,30.90785z"/>
    <path stroke="null" id="svg_9" d="m5162.25831,5132.74781c-328.25963,-69.94935 -736.58259,-343.23985 -734.98133,-492.89893c1.60127,-58.56225 22.41773,-94.35029 76.86079,-123.63142c54.44306,-29.28112 118.49372,-8.13365 180.94311,58.56225c73.65826,78.083 269.01277,206.5946 376.29763,247.26283c120.09499,47.17515 331.46217,79.70973 446.75335,71.57608c371.49383,-26.02767 715.76613,-253.76975 887.10164,-588.87595c91.27219,-180.56694 120.09499,-300.94489 118.49372,-514.04641c0,-156.166 -6.40507,-196.83423 -49.63926,-325.34583l-49.63926,-146.40562l102.48106,-104.11067l102.48106,-105.73739l41.63293,97.60375c91.27219,209.84806 112.08866,318.83891 112.08866,600.26306c0,250.51629 -3.20253,265.15685 -52.84179,414.81593c-228.98111,675.0926 -880.69658,1057.37395 -1558.03231,910.96832z"/>
   </g>
  </g>
 </g>
</svg>